<?xml version="1.0" encoding="UTF-8" standalone="no"?>
<!-- Generator: Adobe Illustrator 15.0.0, SVG Export Plug-In . SVG Version: 6.00 Build 0)  -->

<svg
   xmlns:dc="http://purl.org/dc/elements/1.1/"
   xmlns:cc="http://creativecommons.org/ns#"
   xmlns:rdf="http://www.w3.org/1999/02/22-rdf-syntax-ns#"
   xmlns:svg="http://www.w3.org/2000/svg"
   xmlns="http://www.w3.org/2000/svg"
   xmlns:sodipodi="http://sodipodi.sourceforge.net/DTD/sodipodi-0.dtd"
   xmlns:inkscape="http://www.inkscape.org/namespaces/inkscape"
   version="1.1"
   id="Capa_1"
   x="0px"
   y="0px"
   width="64"
   height="64"
   viewBox="0 0 64 64"
   xml:space="preserve"
   sodipodi:docname="band_aid.svg"
   inkscape:version="0.92.4 (5da689c313, 2019-01-14)"
   inkscape:export-filename="Q:\Projects\Utilities\WinScanProfile\band_aid.png"
   inkscape:export-xdpi="96"
   inkscape:export-ydpi="96"><metadata
   id="metadata4550"><rdf:RDF><cc:Work
       rdf:about=""><dc:format>image/svg+xml</dc:format><dc:type
         rdf:resource="http://purl.org/dc/dcmitype/StillImage" /><dc:title></dc:title></cc:Work></rdf:RDF></metadata><defs
   id="defs4548" /><sodipodi:namedview
   pagecolor="#ffffff"
   bordercolor="#666666"
   borderopacity="1"
   objecttolerance="10"
   gridtolerance="10"
   guidetolerance="10"
   inkscape:pageopacity="0"
   inkscape:pageshadow="2"
   inkscape:window-width="1842"
   inkscape:window-height="1051"
   id="namedview4546"
   showgrid="false"
   inkscape:zoom="6.2105263"
   inkscape:cx="19"
   inkscape:cy="19"
   inkscape:window-x="-9"
   inkscape:window-y="-9"
   inkscape:window-maximized="1"
   inkscape:current-layer="Capa_1" />


<g
   id="g5119"
   inkscape:export-xdpi="192"
   inkscape:export-ydpi="192"><path
     sodipodi:nodetypes="scccccccs"
     inkscape:connector-curvature="0"
     class="st0"
     d="M 57.926984,6.0720497 C 69.772966,17.917476 60.654591,27.248126 60.562353,27.340359 49.660579,38.045824 39.487112,48.478283 28.764747,59.192941 l -0.03953,-0.03953 -1.330862,1.330799 C 20.049206,67.859132 10.275753,61.975007 6.1363422,57.862142 2.0251672,53.721043 -3.8592348,43.951814 3.5160322,36.603245 L 36.644499,3.4236287 c 0.06588,-0.09412 9.44968,-9.1838282 21.282485,2.648421 z"
     style="opacity:1;fill:#ffffff;fill-opacity:1;stroke-width:1.88236201"
     id="path5101" /><path
     style="fill:#ffbdd8;stroke-width:1.88236201"
     d="m 48.012351,24.061361 c 1.470159,1.47009 1.470159,3.853104 0,5.323194 L 29.378412,48.017619 c -1.47016,1.47009 -3.853286,1.47009 -5.323445,0 l -7.98705,-7.984792 c -1.470159,-1.47009 -1.470159,-3.853104 0,-5.323195 L 34.703739,16.076568 c 1.470159,-1.47009 3.853285,-1.47009 5.323444,0 z"
     class="stshockcolor"
     id="268355004_shock_x5F_color_grid"
     inkscape:connector-curvature="0" /><path
     id="path4543"
     style="opacity:0.8;fill:#00000a;fill-opacity:1;stroke-width:1.88236201"
     d="M 57.926984,6.0720493 C 69.772966,17.917475 60.654591,27.248125 60.562353,27.340358 L 42.636198,45.329669 31.987427,34.68328 l -5.310268,5.310018 -2.676782,-2.648421 5.378035,-5.296842 -5.325328,-5.325077 2.648546,-2.648421 5.323445,5.325077 5.287679,-5.364606 2.661722,2.661597 -5.325327,5.325078 7.987049,7.986674 L 57.90063,24.680643 C 58.580179,23.974774 64.22175,17.693479 55.265262,8.735529 46.054648,-0.47465199 39.533993,5.7802901 39.264809,6.0475792 L 6.1250478,39.240371 c -6.37759223,6.375411 1.8899358,15.147012 2.6730168,15.960173 0.8131995,0.784926 9.5852124,9.052066 15.9609224,2.674773 l 12.551884,-12.543765 2.661723,2.661597 -11.207847,11.199791 -0.03953,-0.03953 -1.330862,1.330799 C 20.049206,67.859131 10.275753,61.975006 6.1363422,57.862141 2.0251671,53.721042 -3.8592347,43.951813 3.5160328,36.603244 L 36.644499,3.4236282 c 0.06588,-0.094116 9.44968,-9.1838286 21.282485,2.6484211 z"
     class="st0"
     inkscape:connector-curvature="0" /></g>
</svg>